<?xml version="1.0" encoding="UTF-8" standalone="no"?>
<svg width="94px" height="21px" viewBox="0 0 94 21" version="1.1" xmlns="http://www.w3.org/2000/svg" xmlns:xlink="http://www.w3.org/1999/xlink" xmlns:sketch="http://www.bohemiancoding.com/sketch/ns">
    <!-- Generator: Sketch 3.4.1 (15681) - http://www.bohemiancoding.com/sketch -->
    <title>Imported Layers</title>
    <desc>Created with Sketch.</desc>
    <defs></defs>
    <g id="Registration-/-Login" stroke="none" stroke-width="1" fill="none" fill-rule="evenodd" sketch:type="MSPage">
        <g id="Login" sketch:type="MSArtboardGroup" transform="translate(-673.000000, -234.000000)" fill="#FFFFFF">
            <g id="Imported-Layers" sketch:type="MSLayerGroup" transform="translate(673.548387, 234.500000)">
                <path d="M56.5090323,13.8709677 L50.2580645,13.8709677 L48.8019355,19.6774194 L45.4051613,19.6774194 L51.5135484,0.322580645 L55.3954839,0.322580645 L61.476129,19.6774194 L57.9651613,19.6774194 L56.5090323,13.8709677 L56.5090323,13.8709677 Z M55.7664516,11.9354839 L55.1103226,9.68322581 C54.5393548,7.71354839 53.9683871,5.48387097 53.4264516,3.5483871 L53.3122581,3.5483871 C52.7987097,5.48387097 52.2554839,7.71354839 51.6567742,9.68322581 L51,11.9354839 L55.7664516,11.9354839 L55.7664516,11.9354839 Z" id="Fill-1" sketch:type="MSShapeGroup"></path>
                <path d="M64.7225806,14.6819355 C66.0632258,15.9374194 67.8619355,16.7941935 69.6032258,16.7941935 C71.6870968,16.7941935 72.8574194,15.8522581 72.8574194,14.3967742 C72.8574194,12.8548387 71.6587097,12.3703226 69.9458065,11.656129 L67.4051613,10.5432258 C65.5496774,9.7716129 63.6374194,8.31677419 63.6374194,5.57612903 C63.6374194,2.60709677 66.2632258,0.323225806 69.8890323,0.323225806 C72.0864516,0.323225806 74.1993548,1.23677419 75.6548387,2.69290323 L73.9419355,4.80516129 C72.7722581,3.80580645 71.4870968,3.20645161 69.8890323,3.20645161 C68.1193548,3.20645161 66.9767742,4.03483871 66.9767742,5.40451613 C66.9767742,6.86064516 68.4045161,7.40322581 69.9458065,8.03032258 L72.4580645,9.08709677 C74.683871,10.0290323 76.2258065,11.4277419 76.2258065,14.1393548 C76.2258065,17.1651613 73.7135484,19.6774194 69.5174194,19.6774194 C67.0051613,19.6774194 64.5787097,18.6780645 62.8096774,16.9374194 L64.7225806,14.6819355" id="Fill-2" sketch:type="MSShapeGroup"></path>
                <path d="M79.5993548,0.322580645 L85.6580645,0.322580645 C89.74,0.322580645 92.7374194,2.29290323 92.7374194,6.63096774 C92.7374194,10.7703226 89.6541935,13.2258065 85.6580645,13.2258065 L82.8245161,13.2258065 L82.8245161,19.6774194 L79.5993548,19.6774194 L79.5993548,0.322580645 L79.5993548,0.322580645 Z M85.3722581,10 C88.1703226,10 89.4832258,8.91548387 89.4832258,6.63096774 C89.4832258,4.29032258 88.083871,3.5483871 85.3722581,3.5483871 L82.8245161,3.5483871 L82.8245161,10 L85.3722581,10 L85.3722581,10 Z" id="Fill-3" sketch:type="MSShapeGroup"></path>
                <path d="M40.1103226,0.336774194 L35.5316129,0.330967742 C35.5316129,0.330967742 29.1006452,15.6432258 20.4103226,15.6432258 C17.2264516,15.6432258 14.2877419,13.4632258 12.1064516,10.9825806 C10.6477419,12.8509677 9.75354839,14.4625806 9.75354839,14.4625806 C13.0780645,17.8341935 16.6670968,19.6722581 20.4103226,19.6722581 C24.3922581,19.6722581 28.2096774,17.6270968 31.7193548,13.8696774 C33.58,16.9916129 34.6335484,19.6774194 34.6335484,19.6774194 L39.5503226,19.663871 C37.9935484,16.1477419 36.3116129,13.0458065 34.5270968,10.4077419 C36.5232258,7.60903226 38.3954839,4.23032258 40.1103226,0.336774194" id="Fill-4" sketch:type="MSShapeGroup"></path>
                <path d="M19.9445161,0.329032258 C15.9619355,0.329032258 12.143871,2.37419355 8.63419355,6.13225806 C6.77354839,3.00967742 5.72129032,0.323225806 5.72129032,0.323225806 L0.803870968,0.336774194 C2.36129032,3.85419355 4.04451613,6.95290323 5.82903226,9.59096774 C3.83225806,12.3903226 1.96,15.7696774 0.244516129,19.663871 L4.82258065,19.6703226 C4.82258065,19.6703226 11.2535484,4.35806452 19.9445161,4.35806452 C23.12,4.35806452 25.8264516,6.36322581 28.2322581,9.00064516 C29.5664516,7.35806452 30.5858065,5.52193548 30.5858065,5.52193548 C27.2658065,2.16193548 23.6819355,0.329032258 19.9445161,0.329032258" id="Fill-5" sketch:type="MSShapeGroup"></path>
            </g>
        </g>
    </g>
</svg>